<?xml version="1.0" standalone="no"?>
<!DOCTYPE svg PUBLIC "-//W3C//DTD SVG 20010904//EN"
 "http://www.w3.org/TR/2001/REC-SVG-20010904/DTD/svg10.dtd">
<svg version="1.0" xmlns="http://www.w3.org/2000/svg"
 width="512.000000pt" height="512.000000pt" viewBox="0 0 512.000000 512.000000"
 preserveAspectRatio="xMidYMid meet">

<g transform="translate(0.000000,512.000000) scale(0.100000,-0.100000)"
fill="#000000" stroke="none">
<path d="M1791 4504 c-20 -25 -21 -40 -21 -214 0 -209 8 -270 47 -350 64 -132
192 -214 367 -235 151 -19 223 -63 272 -170 21 -44 24 -65 24 -177 l0 -128
-783 0 -784 0 -21 -23 c-29 -31 -29 -77 1 -105 l23 -22 1945 0 1945 0 52 -26
c81 -40 106 -90 110 -221 l4 -103 -2412 0 -2412 0 4 103 c4 131 29 181 110
221 49 25 60 26 203 26 145 0 152 1 173 23 30 31 29 77 -2 106 -23 22 -29 23
-198 19 -173 -3 -174 -3 -240 -36 -77 -38 -130 -92 -167 -171 l-26 -56 -3
-1034 c-2 -920 -1 -1040 13 -1089 41 -140 148 -231 298 -253 82 -11 4412 -11
4494 0 150 22 257 113 298 253 14 49 15 169 13 1089 l-3 1034 -33 67 c-38 77
-92 130 -171 167 l-56 26 -1106 3 -1106 2 -6 138 c-6 151 -24 219 -76 295 -79
116 -190 176 -356 192 -125 12 -204 63 -257 165 -22 42 -23 58 -26 255 -3 197
-5 211 -25 233 -29 32 -79 30 -106 -4z m-993 -2096 l-3 -173 -322 -3 -323 -2
0 175 0 175 325 0 325 0 -2 -172z m592 -3 l0 -175 -220 0 -220 0 0 175 0 175
220 0 220 0 0 -175z m600 0 l0 -175 -222 2 -223 3 -3 173 -2 172 225 0 225 0
0 -175z m590 0 l0 -175 -220 0 -220 0 0 175 0 175 220 0 220 0 0 -175z m600 0
l0 -175 -220 0 -220 0 0 175 0 175 220 0 220 0 0 -175z m598 3 l-3 -173 -222
-3 -223 -2 0 175 0 175 225 0 225 0 -2 -172z m592 -3 l0 -175 -220 0 -220 0 0
175 0 175 220 0 220 0 0 -175z m600 0 l0 -175 -222 2 -223 3 -3 173 -2 172
225 0 225 0 0 -175z m-4570 -500 l0 -176 -122 3 -123 3 -3 173 -2 172 125 0
125 0 0 -175z m598 3 l-3 -173 -220 0 -220 0 -3 173 -2 172 225 0 225 0 -2
-172z m592 -3 l0 -175 -220 0 -220 0 0 175 0 175 220 0 220 0 0 -175z m600 0
l0 -175 -220 0 -220 0 0 175 0 175 220 0 220 0 0 -175z m598 3 l-3 -173 -220
0 -220 0 -3 173 -2 172 225 0 225 0 -2 -172z m592 -3 l0 -175 -220 0 -220 0 0
175 0 175 220 0 220 0 0 -175z m598 3 l-3 -173 -220 0 -220 0 -3 173 -2 172
225 0 225 0 -2 -172z m592 -3 l0 -175 -220 0 -220 0 0 175 0 175 220 0 220 0
0 -175z m400 -245 l0 -420 -225 0 -225 0 0 169 0 169 80 4 c67 3 83 7 102 26
22 22 23 29 26 247 l3 225 120 0 119 0 0 -420z m-4170 -250 l0 -170 -325 0
-325 0 0 170 0 170 325 0 325 0 0 -170z m590 0 l0 -170 -220 0 -220 0 0 170 0
170 220 0 220 0 0 -170z m600 0 l0 -170 -225 0 -225 0 0 170 0 170 225 0 225
0 0 -170z m590 0 l0 -170 -220 0 -220 0 0 170 0 170 220 0 220 0 0 -170z m600
3 l0 -168 -47 -15 c-53 -17 -71 -46 -59 -94 9 -37 58 -56 141 -56 l65 0 0
-170 0 -170 -800 0 -800 0 0 170 0 169 571 3 571 3 19 24 c43 52 15 116 -56
127 l-45 6 0 169 0 169 220 0 220 0 0 -167z m600 -3 l0 -170 -225 0 -225 0 0
170 0 170 225 0 225 0 0 -170z m590 0 l0 -170 -220 0 -220 0 0 170 0 170 220
0 220 0 0 -170z m-4040 -501 l0 -171 -27 7 c-47 11 -86 39 -118 84 -27 39 -30
50 -33 147 l-4 104 91 0 91 0 0 -171z m600 1 l0 -170 -220 0 -220 0 0 170 0
170 220 0 220 0 0 -170z m600 0 l0 -170 -225 0 -225 0 0 170 0 170 225 0 225
0 0 -170z m2340 0 l0 -170 -220 0 -220 0 0 170 0 170 220 0 220 0 0 -170z
m600 0 l0 -170 -225 0 -225 0 0 170 0 170 225 0 225 0 0 -170z m498 66 c-3
-97 -6 -108 -33 -148 -47 -67 -99 -88 -217 -88 l-98 0 0 170 0 170 176 0 176
0 -4 -104z"/>
</g>
</svg>
